# Blender 4.0.1
# www.blender.org
o Base
v -0.375000 0.625000 0.375000
v 0.375000 2.000000 0.375000
v 0.500000 2.000000 0.375000
v 0.375000 1.875000 0.375000
v 0.500000 1.875000 0.375000
v 0.375000 2.000000 -0.375000
v 0.500000 2.000000 -0.375000
v 0.375000 1.875000 -0.375000
v 0.500000 1.875000 -0.375000
v -0.375000 2.000000 0.375000
v -0.375000 2.000000 0.500000
v -0.375000 1.875000 0.375000
v -0.375000 1.875000 0.500000
v 0.375000 2.000000 0.375000
v 0.375000 2.000000 0.500000
v 0.375000 1.875000 0.375000
v 0.375000 1.875000 0.500000
v -0.375000 2.000000 -0.375000
v -0.500000 2.000000 -0.375000
v -0.375000 1.875000 -0.375000
v -0.500000 1.875000 -0.375000
v -0.375000 2.000000 0.375000
v -0.500000 2.000000 0.375000
v -0.375000 1.875000 0.375000
v -0.500000 1.875000 0.375000
v 0.375000 2.000000 -0.375000
v 0.375000 2.000000 -0.500000
v 0.375000 1.875000 -0.375000
v 0.375000 1.875000 -0.500000
v -0.375000 2.000000 -0.375000
v -0.375000 2.000000 -0.500000
v -0.375000 1.875000 -0.375000
v -0.375000 1.875000 -0.500000
v 0.500000 0.750000 -0.375000
v 0.500000 0.750000 -0.500000
v 0.500000 0.250000 -0.375000
v 0.500000 0.250000 -0.500000
v 0.375000 0.750000 -0.375000
v 0.375000 0.750000 -0.500000
v 0.375000 0.250000 -0.375000
v 0.375000 0.250000 -0.500000
v 0.500000 2.000000 -0.375000
v 0.500000 2.000000 -0.500000
v 0.500000 1.000000 -0.375000
v 0.500000 1.000000 -0.500000
v 0.375000 2.000000 -0.375000
v 0.375000 2.000000 -0.500000
v 0.375000 1.000000 -0.375000
v 0.375000 1.000000 -0.500000
v -0.375000 2.000000 -0.375000
v -0.375000 2.000000 -0.500000
v -0.375000 1.000000 -0.375000
v -0.375000 1.000000 -0.500000
v -0.500000 2.000000 -0.375000
v -0.500000 2.000000 -0.500000
v -0.500000 1.000000 -0.375000
v -0.500000 1.000000 -0.500000
v -0.375000 0.750000 -0.375000
v -0.375000 0.750000 -0.500000
v -0.375000 0.250000 -0.375000
v -0.375000 0.250000 -0.500000
v -0.500000 0.750000 -0.375000
v -0.500000 0.750000 -0.500000
v -0.500000 0.250000 -0.375000
v -0.500000 0.250000 -0.500000
v 0.500000 0.750000 0.500000
v 0.500000 0.750000 0.375000
v 0.500000 0.250000 0.500000
v 0.500000 0.250000 0.375000
v 0.375000 0.750000 0.500000
v 0.375000 0.750000 0.375000
v 0.375000 0.250000 0.500000
v 0.375000 0.250000 0.375000
v 0.500000 2.000000 0.500000
v 0.500000 2.000000 0.375000
v 0.500000 1.000000 0.500000
v 0.500000 1.000000 0.375000
v 0.375000 2.000000 0.500000
v 0.375000 2.000000 0.375000
v 0.375000 1.000000 0.500000
v 0.375000 1.000000 0.375000
v -0.375000 2.000000 0.500000
v -0.375000 2.000000 0.375000
v -0.375000 1.000000 0.500000
v -0.375000 1.000000 0.375000
v -0.500000 2.000000 0.500000
v -0.500000 2.000000 0.375000
v -0.500000 1.000000 0.500000
v -0.500000 1.000000 0.375000
v -0.375000 0.750000 0.500000
v -0.375000 0.750000 0.375000
v -0.375000 0.250000 0.500000
v -0.375000 0.250000 0.375000
v -0.500000 0.750000 0.500000
v -0.500000 0.750000 0.375000
v -0.500000 0.250000 0.500000
v -0.500000 0.250000 0.375000
v 0.000000 1.000000 -0.000000
v 0.021831 1.000000 0.500000
v 0.021831 1.875000 0.500000
v 0.250000 1.000000 0.437500
v 0.250000 1.875000 0.437500
v 0.437500 1.000000 0.250000
v 0.437500 1.875000 0.250000
v 0.500000 1.000000 -0.021831
v 0.500000 1.875000 -0.021831
v 0.437500 1.000000 -0.250000
v 0.437500 1.875000 -0.250000
v 0.250000 1.000000 -0.437500
v 0.250000 1.875000 -0.437500
v -0.021831 1.000000 -0.500000
v -0.021831 1.875000 -0.500000
v -0.250000 1.000000 -0.437500
v -0.250000 1.875000 -0.437500
v -0.437500 1.000000 -0.250000
v -0.437500 1.875000 -0.250000
v -0.500000 1.000000 0.021831
v -0.500000 1.875000 0.021830
v -0.437500 1.000000 0.250000
v -0.437500 1.875000 0.250000
v -0.250000 1.000000 0.437500
v -0.250000 1.875000 0.437500
v 0.328125 1.875000 0.187500
v 0.375000 1.875000 -0.016373
v 0.187500 1.875000 0.328125
v 0.016373 1.875000 0.375000
v -0.187500 1.875000 0.328125
v -0.328125 1.875000 0.187500
v -0.375000 1.875000 0.016373
v -0.328125 1.875000 -0.187500
v -0.187500 1.875000 -0.328125
v 0.187500 1.875000 -0.328125
v -0.016373 1.875000 -0.375000
v 0.328125 1.875000 -0.187500
v 0.328125 1.500000 0.187500
v 0.375000 1.500000 -0.016373
v 0.000000 1.500000 -0.000000
v 0.187500 1.500000 0.328125
v 0.016373 1.500000 0.375000
v -0.187500 1.500000 0.328125
v -0.328125 1.500000 0.187500
v -0.375000 1.500000 0.016373
v -0.328125 1.500000 -0.187500
v -0.187500 1.500000 -0.328125
v 0.187500 1.500000 -0.328125
v -0.016373 1.500000 -0.375000
v 0.328125 1.500000 -0.187500
v 0.500000 1.000000 0.500000
v 0.500000 1.000000 -0.500000
v 0.500000 0.750000 0.500000
v 0.500000 0.750000 -0.500000
v -0.500000 1.000000 0.500000
v -0.500000 1.000000 -0.500000
v -0.500000 0.750000 0.500000
v -0.500000 0.750000 -0.500000
v 0.500000 0.250000 0.500000
v 0.500000 0.250000 -0.500000
v 0.500000 0.000000 0.500000
v 0.500000 -0.000000 -0.500000
v -0.500000 0.250000 0.500000
v -0.500000 0.250000 -0.500000
v -0.500000 0.000000 0.500000
v -0.500000 -0.000000 -0.500000
v 0.375000 0.625000 0.375000
v 0.375000 0.625000 -0.375000
v 0.375000 0.375000 0.375000
v 0.375000 0.375000 -0.375000
v -0.375000 0.625000 -0.375000
v -0.375000 0.375000 0.375000
v -0.375000 0.375000 -0.375000
v 0.250000 0.750000 0.250000
v 0.250000 0.750000 -0.250000
v -0.250000 0.750000 0.250000
v -0.250000 0.750000 -0.250000
v 0.250000 0.250000 0.250000
v -0.250000 0.250000 0.250000
v 0.250000 0.250000 -0.250000
v -0.250000 0.250000 -0.250000
v 0.375000 0.687500 0.187500
v 0.500000 0.687500 0.187500
v 0.375000 0.312500 0.187500
v 0.500000 0.312500 0.187500
v 0.375000 0.687500 -0.187500
v 0.500000 0.687500 -0.187500
v 0.375000 0.312500 -0.187500
v 0.500000 0.312500 -0.187500
v 0.187500 0.687500 -0.375000
v 0.187500 0.687500 -0.500000
v 0.187500 0.312500 -0.375000
v 0.187500 0.312500 -0.500000
v -0.187500 0.687500 -0.375000
v -0.187500 0.687500 -0.500000
v -0.187500 0.312500 -0.375000
v -0.187500 0.312500 -0.500000
v -0.375000 0.687500 -0.187500
v -0.500000 0.687500 -0.187500
v -0.375000 0.312500 -0.187500
v -0.500000 0.312500 -0.187500
v -0.375000 0.687500 0.187500
v -0.500000 0.687500 0.187500
v -0.375000 0.312500 0.187500
v -0.500000 0.312500 0.187500
v -0.187500 0.687500 0.375000
v -0.187500 0.687500 0.500000
v -0.187500 0.312500 0.375000
v -0.187500 0.312500 0.500000
v 0.187500 0.687500 0.375000
v 0.187500 0.687500 0.500000
v 0.187500 0.312500 0.375000
v 0.187500 0.312500 0.500000
vn -0.0000 1.0000 -0.0000
vn -0.0000 -1.0000 -0.0000
vn -1.0000 -0.0000 -0.0000
vn 1.0000 -0.0000 -0.0000
vn -0.0000 -0.0000 -1.0000
vn -0.0000 -0.0000 1.0000
vn 0.2642 -0.0000 0.9645
vn 0.7071 -0.0000 0.7071
vn 0.9746 -0.0000 0.2241
vn 0.9645 -0.0000 -0.2642
vn 0.7071 -0.0000 -0.7071
vn 0.2241 -0.0000 -0.9746
vn -0.2642 -0.0000 -0.9645
vn -0.7071 -0.0000 -0.7071
vn -0.9746 -0.0000 -0.2241
vn -0.9645 -0.0000 0.2642
vn -0.7071 -0.0000 0.7071
vn -0.2241 -0.0000 0.9746
vn -0.0000 0.7071 0.7071
vn 0.7071 0.7071 -0.0000
vn -0.0000 0.7071 -0.7071
vn -0.7071 0.7071 -0.0000
vn 0.7071 -0.7071 -0.0000
vn -0.0000 -0.7071 0.7071
vn -0.7071 -0.7071 -0.0000
vn -0.0000 -0.7071 -0.7071
vt 0.000000 0.542857
vt 0.200000 0.514286
vt 0.200000 0.542857
vt 0.000000 0.571429
vt 0.200000 0.600000
vt 0.000000 0.600000
vt 0.200000 0.571429
vt 0.000000 0.628571
vt 0.200000 0.628571
vt 0.100000 0.742857
vt 0.133333 0.628571
vt 0.133333 0.742857
vt 0.066667 0.742857
vt 0.033333 0.628571
vt 0.066667 0.628571
vt 0.100000 0.628571
vt 0.000000 0.742857
vt 0.033333 0.742857
vt 0.100000 0.971429
vt 0.133333 0.971429
vt 0.066667 0.971429
vt 0.066667 1.000000
vt 0.000000 0.971429
vt 0.033333 0.971429
vt 0.317704 -0.123798
vt 0.301987 -0.071429
vt 0.183333 -0.123798
vt 0.466667 0.085714
vt 0.400000 0.285714
vt 0.400000 0.085714
vt 0.904366 0.142857
vt 0.950000 0.153571
vt 0.900000 0.228571
vt 0.317704 -0.129902
vt 0.299099 -0.071429
vt 0.183333 -0.129902
vt 0.533333 0.085714
vt 0.466667 0.285714
vt 0.987500 0.185714
vt 0.311972 -0.135183
vt 0.311972 -0.071429
vt 0.183333 -0.104711
vt 0.600000 0.085714
vt 0.533333 0.285714
vt 1.000000 0.232314
vt 0.183333 -0.186604
vt 0.244430 -0.173132
vt 0.183333 -0.071429
vt 0.666667 0.085714
vt 0.600000 0.285714
vt 0.987500 0.271429
vt 0.251552 -0.170656
vt 0.733333 0.085714
vt 0.666667 0.285714
vt 0.950000 0.303571
vt 0.183333 -0.181690
vt 0.257713 -0.181690
vt 0.218884 -0.071429
vt 0.800000 0.085714
vt 0.733333 0.285714
vt 0.895634 0.314286
vt 0.199050 -0.123798
vt 0.317704 -0.071429
vt 0.066667 0.085714
vt 0.000000 0.285714
vt 0.000000 0.085714
vt 0.850000 0.303571
vt 0.201938 -0.129902
vt 0.133333 0.085714
vt 0.066667 0.285714
vt 0.812500 0.271429
vt 0.183333 -0.135183
vt 0.311972 -0.101900
vt 0.200000 0.085714
vt 0.133333 0.285714
vt 0.800000 0.224829
vt 0.244430 -0.071429
vt 0.183333 -0.084900
vt 0.244430 -0.186604
vt 0.266667 0.285714
vt 0.200000 0.285714
vt 0.812500 0.185714
vt 0.251552 -0.071429
vt 0.183333 -0.087376
vt 0.251552 -0.186604
vt 0.333333 0.085714
vt 0.266667 0.085714
vt 0.850000 0.153571
vt 0.257713 -0.071429
vt 0.222163 -0.181690
vt 0.333333 0.285714
vt 0.533333 0.314286
vt 0.583333 0.314286
vt 0.466667 0.314286
vt 0.516667 0.314286
vt 0.450000 0.314286
vt 0.333333 0.314286
vt 0.383333 0.314286
vt 0.266667 0.314286
vt 0.316667 0.314286
vt 0.250000 0.314286
vt 0.133333 0.314286
vt 0.183333 0.314286
vt 0.066667 0.314286
vt 0.116667 0.314286
vt 0.733333 0.314286
vt 0.800000 0.285714
vt 0.783333 0.314286
vt 0.666667 0.314286
vt 0.716667 0.314286
vt 0.650000 0.314286
vt 0.050000 0.314286
vt 0.400000 0.000000
vt 0.450000 0.085714
vt 0.450000 0.000000
vt 0.350000 0.000000
vt 0.300000 0.000000
vt 0.350000 0.085714
vt 0.250000 0.000000
vt 0.300000 0.085714
vt 0.200000 0.000000
vt 0.250000 0.085714
vt 0.150000 0.000000
vt 0.100000 0.000000
vt 0.150000 0.085714
vt 0.050000 0.000000
vt 0.100000 0.085714
vt 0.550000 0.000000
vt 0.600000 0.000000
vt 0.500000 0.000000
vt 0.550000 0.085714
vt 0.500000 0.085714
vt 0.000000 0.000000
vt 0.050000 0.085714
vt 0.200000 0.714286
vt 0.466667 0.657143
vt 0.466667 0.714286
vt 0.200000 0.657143
vt 0.466667 0.428571
vt 0.200000 0.428571
vt 0.733333 0.657143
vt 0.733333 0.428571
vt 0.200000 1.000000
vt 0.466667 0.942857
vt 0.466667 1.000000
vt 0.200000 0.942857
vt 0.733333 0.942857
vt 0.733333 0.714286
vt 0.800000 0.400000
vt 1.000000 0.342857
vt 1.000000 0.400000
vt 0.600000 0.400000
vt 0.400000 0.342857
vt 0.600000 0.342857
vt 0.800000 0.342857
vt 0.200000 0.400000
vt 0.400000 0.400000
vt 0.633333 0.428571
vt 0.766667 0.428571
vt 0.833333 0.428571
vt 0.966667 0.428571
vt 0.233333 0.428571
vt 0.366667 0.428571
vt 0.433333 0.428571
vt 0.566667 0.428571
vt 0.966667 0.314286
vt 0.833333 0.314286
vt 0.766667 0.314286
vt 0.633333 0.314286
vt 0.566667 0.314286
vt 0.433333 0.314286
vt 0.366667 0.314286
vt 0.200000 0.342857
vt 0.233333 0.314286
vt 0.016667 0.485714
vt 0.050000 0.400000
vt 0.050000 0.485714
vt 0.183333 0.485714
vt 0.150000 0.400000
vt 0.183333 0.400000
vt 0.050000 0.514286
vt 0.150000 0.485714
vt 0.150000 0.514286
vt 0.050000 0.371429
vt 0.000000 0.514286
vt 0.100000 1.000000
vt 0.400000 0.314286
vt 0.200000 0.314286
vt 0.600000 0.314286
vt 0.000000 0.314286
vt 0.016667 0.400000
vt 0.150000 0.371429
s 1
f 2/1/1 7/2/1 6/3/1
f 4/4/2 9/5/2 5/6/2
f 2/1/3 8/7/3 4/4/3
f 3/8/4 9/5/4 7/9/4
f 10/1/1 15/2/1 14/3/1
f 12/4/2 17/5/2 13/6/2
f 10/1/5 16/7/5 12/4/5
f 11/8/6 17/5/6 15/9/6
f 18/1/1 23/2/1 22/3/1
f 20/4/2 25/5/2 21/6/2
f 18/1/4 24/7/4 20/4/4
f 19/8/3 25/5/3 23/9/3
f 26/1/1 31/2/1 30/3/1
f 28/4/2 33/5/2 29/6/2
f 26/1/6 32/7/6 28/4/6
f 27/8/5 33/5/5 31/9/5
f 34/10/4 37/11/4 35/12/4
f 38/13/3 41/14/3 40/15/3
f 34/10/6 40/15/6 36/16/6
f 35/17/5 41/14/5 39/18/5
f 42/19/4 45/12/4 43/20/4
f 46/21/3 49/18/3 48/13/3
f 42/19/1 47/22/1 46/21/1
f 42/19/6 48/13/6 44/10/6
f 43/23/5 49/18/5 47/24/5
f 50/19/4 53/12/4 51/20/4
f 54/21/3 57/18/3 56/13/3
f 50/19/1 55/22/1 54/21/1
f 50/19/6 56/13/6 52/10/6
f 51/23/5 57/18/5 55/24/5
f 58/10/4 61/11/4 59/12/4
f 62/13/3 65/14/3 64/15/3
f 58/10/6 64/15/6 60/16/6
f 59/17/5 65/14/5 63/18/5
f 66/10/4 69/11/4 67/12/4
f 70/13/3 73/14/3 72/15/3
f 66/10/6 72/15/6 68/16/6
f 67/17/5 73/14/5 71/18/5
f 74/19/4 77/12/4 75/20/4
f 78/21/3 81/18/3 80/13/3
f 74/19/1 79/22/1 78/21/1
f 74/19/6 80/13/6 76/10/6
f 75/23/5 81/18/5 79/24/5
f 82/19/4 85/12/4 83/20/4
f 86/21/3 89/18/3 88/13/3
f 82/19/1 87/22/1 86/21/1
f 82/19/6 88/13/6 84/10/6
f 83/23/5 89/18/5 87/24/5
f 90/10/4 93/11/4 91/12/4
f 94/13/3 97/14/3 96/15/3
f 90/10/6 96/15/6 92/16/6
f 91/17/5 97/14/5 95/18/5
f 101/25/2 99/26/2 98/27/2
f 101/28/7 100/29/7 99/30/7
f 139/31/1 138/32/1 137/33/1
f 103/34/2 101/35/2 98/36/2
f 103/37/8 102/38/8 101/28/8
f 138/32/1 135/39/1 137/33/1
f 105/40/2 103/41/2 98/42/2
f 105/43/9 104/44/9 103/37/9
f 135/39/1 136/45/1 137/33/1
f 107/46/2 105/47/2 98/48/2
f 107/49/10 106/50/10 105/43/10
f 136/45/1 147/51/1 137/33/1
f 109/46/2 107/52/2 98/48/2
f 109/53/11 108/54/11 107/49/11
f 147/51/1 145/55/1 137/33/1
f 111/56/2 109/57/2 98/58/2
f 111/59/12 110/60/12 109/53/12
f 145/55/1 146/61/1 137/33/1
f 113/48/2 111/62/2 98/63/2
f 113/64/13 112/65/13 111/66/13
f 146/61/1 144/67/1 137/33/1
f 115/48/2 113/68/2 98/63/2
f 115/69/14 114/70/14 113/64/14
f 144/67/1 143/71/1 137/33/1
f 117/48/2 115/72/2 98/73/2
f 117/74/15 116/75/15 115/69/15
f 143/71/1 142/76/1 137/33/1
f 119/77/2 117/78/2 98/79/2
f 117/74/16 120/80/16 118/81/16
f 142/76/1 141/82/1 137/33/1
f 121/83/2 119/84/2 98/85/2
f 121/86/17 120/80/17 119/87/17
f 141/82/1 140/88/1 137/33/1
f 99/89/2 121/48/2 98/90/2
f 99/30/18 122/91/18 121/86/18
f 140/88/1 139/31/1 137/33/1
f 123/92/1 106/50/1 124/93/1
f 125/94/1 104/44/1 123/95/1
f 125/96/1 100/29/1 102/38/1
f 127/97/1 100/29/1 126/98/1
f 128/99/1 122/91/1 127/100/1
f 128/101/1 118/81/1 120/80/1
f 130/102/1 118/81/1 129/103/1
f 131/104/1 116/75/1 130/105/1
f 132/106/1 112/107/1 133/108/1
f 134/109/1 110/60/1 132/110/1
f 134/111/1 106/50/1 108/54/1
f 131/112/1 112/65/1 114/70/1
f 135/113/15 124/114/15 136/115/15
f 138/116/14 123/30/14 135/113/14
f 139/117/13 125/118/13 138/116/13
f 140/119/12 126/120/12 139/117/12
f 141/121/11 127/122/11 140/119/11
f 142/123/10 128/74/10 141/121/10
f 143/124/9 129/125/9 142/123/9
f 144/126/8 130/127/8 143/124/8
f 145/128/18 133/43/18 146/129/18
f 147/130/17 132/131/17 145/128/17
f 136/115/16 134/132/16 147/130/16
f 146/133/7 131/134/7 144/126/7
f 148/135/4 151/136/4 149/137/4
f 152/137/3 155/138/3 154/136/3
f 148/139/1 153/138/1 152/140/1
f 150/141/2 155/139/2 151/142/2
f 148/137/6 154/138/6 150/136/6
f 149/135/5 155/136/5 153/137/5
f 156/143/4 159/144/4 157/145/4
f 160/145/3 163/146/3 162/144/3
f 156/137/1 161/146/1 160/135/1
f 158/147/2 163/137/2 159/148/2
f 156/145/6 162/146/6 158/144/6
f 157/143/5 163/144/5 161/145/5
f 164/149/4 167/150/4 165/151/4
f 1/152/3 170/153/3 169/154/3
f 164/149/6 169/154/6 166/155/6
f 165/156/5 170/153/5 168/157/5
f 173/158/19 164/149/19 171/159/19
f 171/160/20 165/151/20 172/161/20
f 172/162/21 168/157/21 174/163/21
f 174/164/22 1/152/22 173/165/22
f 177/166/23 166/155/23 175/167/23
f 175/168/24 169/154/24 176/169/24
f 176/170/25 170/153/25 178/171/25
f 178/172/26 167/173/26 177/174/26
f 179/175/6 182/176/6 180/177/6
f 183/178/5 186/179/5 185/180/5
f 179/181/1 184/182/1 183/183/1
f 181/184/2 186/179/2 182/176/2
f 179/182/3 185/176/3 181/179/3
f 180/177/4 186/179/4 184/182/4
f 187/175/4 190/176/4 188/177/4
f 191/178/3 194/179/3 193/180/3
f 187/181/1 192/182/1 191/183/1
f 189/184/2 194/179/2 190/176/2
f 187/182/6 193/176/6 189/179/6
f 188/177/5 194/179/5 192/182/5
f 195/175/5 198/176/5 196/177/5
f 199/178/6 202/179/6 201/180/6
f 195/181/1 200/182/1 199/183/1
f 197/184/2 202/179/2 198/176/2
f 195/182/4 201/176/4 197/179/4
f 196/177/3 202/179/3 200/182/3
f 203/175/3 206/176/3 204/177/3
f 207/178/4 210/179/4 209/180/4
f 203/181/1 208/182/1 207/183/1
f 205/184/2 210/179/2 206/176/2
f 203/182/5 209/176/5 205/179/5
f 204/177/6 210/179/6 208/182/6
f 2/1/1 3/185/1 7/2/1
f 4/4/2 8/7/2 9/5/2
f 2/1/3 6/3/3 8/7/3
f 3/8/4 5/6/4 9/5/4
f 10/1/1 11/185/1 15/2/1
f 12/4/2 16/7/2 17/5/2
f 10/1/5 14/3/5 16/7/5
f 11/8/6 13/6/6 17/5/6
f 18/1/1 19/185/1 23/2/1
f 20/4/2 24/7/2 25/5/2
f 18/1/4 22/3/4 24/7/4
f 19/8/3 21/6/3 25/5/3
f 26/1/1 27/185/1 31/2/1
f 28/4/2 32/7/2 33/5/2
f 26/1/6 30/3/6 32/7/6
f 27/8/5 29/6/5 33/5/5
f 34/10/4 36/16/4 37/11/4
f 38/13/3 39/18/3 41/14/3
f 34/10/6 38/13/6 40/15/6
f 35/17/5 37/8/5 41/14/5
f 42/19/4 44/10/4 45/12/4
f 46/21/3 47/24/3 49/18/3
f 42/19/1 43/186/1 47/22/1
f 42/19/6 46/21/6 48/13/6
f 43/23/5 45/17/5 49/18/5
f 50/19/4 52/10/4 53/12/4
f 54/21/3 55/24/3 57/18/3
f 50/19/1 51/186/1 55/22/1
f 50/19/6 54/21/6 56/13/6
f 51/23/5 53/17/5 57/18/5
f 58/10/4 60/16/4 61/11/4
f 62/13/3 63/18/3 65/14/3
f 58/10/6 62/13/6 64/15/6
f 59/17/5 61/8/5 65/14/5
f 66/10/4 68/16/4 69/11/4
f 70/13/3 71/18/3 73/14/3
f 66/10/6 70/13/6 72/15/6
f 67/17/5 69/8/5 73/14/5
f 74/19/4 76/10/4 77/12/4
f 78/21/3 79/24/3 81/18/3
f 74/19/1 75/186/1 79/22/1
f 74/19/6 78/21/6 80/13/6
f 75/23/5 77/17/5 81/18/5
f 82/19/4 84/10/4 85/12/4
f 86/21/3 87/24/3 89/18/3
f 82/19/1 83/186/1 87/22/1
f 82/19/6 86/21/6 88/13/6
f 83/23/5 85/17/5 89/18/5
f 90/10/4 92/16/4 93/11/4
f 94/13/3 95/18/3 97/14/3
f 90/10/6 94/13/6 96/15/6
f 91/17/5 93/8/5 97/14/5
f 101/28/7 102/38/7 100/29/7
f 103/37/8 104/44/8 102/38/8
f 105/43/9 106/50/9 104/44/9
f 107/49/10 108/54/10 106/50/10
f 109/53/11 110/60/11 108/54/11
f 111/59/12 112/107/12 110/60/12
f 113/64/13 114/70/13 112/65/13
f 115/69/14 116/75/14 114/70/14
f 117/74/15 118/81/15 116/75/15
f 117/74/16 119/87/16 120/80/16
f 121/86/17 122/91/17 120/80/17
f 99/30/18 100/29/18 122/91/18
f 123/92/1 104/44/1 106/50/1
f 125/94/1 102/38/1 104/44/1
f 125/96/1 126/187/1 100/29/1
f 127/97/1 122/91/1 100/29/1
f 128/99/1 120/80/1 122/91/1
f 128/101/1 129/188/1 118/81/1
f 130/102/1 116/75/1 118/81/1
f 131/104/1 114/70/1 116/75/1
f 132/106/1 110/60/1 112/107/1
f 134/109/1 108/54/1 110/60/1
f 134/111/1 124/189/1 106/50/1
f 131/112/1 133/190/1 112/65/1
f 135/113/15 123/30/15 124/114/15
f 138/116/14 125/118/14 123/30/14
f 139/117/13 126/120/13 125/118/13
f 140/119/12 127/122/12 126/120/12
f 141/121/11 128/74/11 127/122/11
f 142/123/10 129/125/10 128/74/10
f 143/124/9 130/127/9 129/125/9
f 144/126/8 131/134/8 130/127/8
f 145/128/18 132/131/18 133/43/18
f 147/130/17 134/132/17 132/131/17
f 136/115/16 124/114/16 134/132/16
f 146/133/7 133/66/7 131/134/7
f 148/135/4 150/138/4 151/136/4
f 152/137/3 153/135/3 155/138/3
f 148/139/1 149/136/1 153/138/1
f 150/141/2 154/136/2 155/139/2
f 148/137/6 152/135/6 154/138/6
f 149/135/5 151/138/5 155/136/5
f 156/143/4 158/146/4 159/144/4
f 160/145/3 161/143/3 163/146/3
f 156/137/1 157/144/1 161/146/1
f 158/147/2 162/144/2 163/137/2
f 156/145/6 160/143/6 162/146/6
f 157/143/5 159/146/5 163/144/5
f 164/149/4 166/155/4 167/150/4
f 1/152/3 168/157/3 170/153/3
f 164/149/6 1/152/6 169/154/6
f 165/156/5 167/173/5 170/153/5
f 173/158/19 1/152/19 164/149/19
f 171/160/20 164/149/20 165/151/20
f 172/162/21 165/156/21 168/157/21
f 174/164/22 168/157/22 1/152/22
f 177/166/23 167/150/23 166/155/23
f 175/168/24 166/155/24 169/154/24
f 176/170/25 169/154/25 170/153/25
f 178/172/26 170/153/26 167/173/26
f 179/175/6 181/191/6 182/176/6
f 183/178/5 184/182/5 186/179/5
f 179/181/1 180/177/1 184/182/1
f 181/184/2 185/192/2 186/179/2
f 179/182/3 183/177/3 185/176/3
f 180/177/4 182/176/4 186/179/4
f 187/175/4 189/191/4 190/176/4
f 191/178/3 192/182/3 194/179/3
f 187/181/1 188/177/1 192/182/1
f 189/184/2 193/192/2 194/179/2
f 187/182/6 191/177/6 193/176/6
f 188/177/5 190/176/5 194/179/5
f 195/175/5 197/191/5 198/176/5
f 199/178/6 200/182/6 202/179/6
f 195/181/1 196/177/1 200/182/1
f 197/184/2 201/192/2 202/179/2
f 195/182/4 199/177/4 201/176/4
f 196/177/3 198/176/3 202/179/3
f 203/175/3 205/191/3 206/176/3
f 207/178/4 208/182/4 210/179/4
f 203/181/1 204/177/1 208/182/1
f 205/184/2 209/192/2 210/179/2
f 203/182/5 207/177/5 209/176/5
f 204/177/6 206/176/6 210/179/6
o Fan
v 0.343750 1.812500 -0.085938
v 0.000000 1.812500 -0.085938
v 0.286458 1.687500 0.085937
v 0.000000 1.687500 0.085937
v -0.343750 1.812500 0.085937
v 0.000000 1.812500 0.085937
v -0.286458 1.687500 -0.085938
v 0.000000 1.687500 -0.085938
v -0.085938 1.812500 -0.343750
v -0.085938 1.812500 -0.000000
v 0.085938 1.687500 -0.286458
v 0.085938 1.687500 -0.000000
v 0.085938 1.812500 0.343750
v 0.085938 1.812500 -0.000000
v -0.085938 1.687500 0.286458
v -0.085938 1.687500 -0.000000
v 0.182301 1.812500 -0.303835
v -0.060767 1.812500 -0.060767
v 0.263324 1.687500 -0.141790
v 0.060767 1.687500 0.060767
v -0.182301 1.812500 0.303835
v 0.060767 1.812500 0.060767
v -0.263324 1.687500 0.141789
v -0.060767 1.687500 -0.060767
v -0.303835 1.812500 -0.182301
v -0.060767 1.812500 0.060767
v -0.141789 1.687500 -0.263324
v 0.060767 1.687500 -0.060767
v 0.303835 1.812500 0.182301
v 0.060767 1.812500 -0.060767
v 0.141789 1.687500 0.263324
v -0.060767 1.687500 0.060767
v -0.125000 1.500000 -0.000000
v 0.000000 1.625000 -0.000000
v 0.000000 1.875000 -0.000000
v 0.000000 1.500000 0.125000
v 0.000000 1.875000 0.125000
v 0.088388 1.500000 0.088388
v 0.088388 1.875000 0.088388
v 0.125000 1.500000 -0.000000
v 0.125000 1.875000 -0.000000
v 0.088388 1.500000 -0.088388
v 0.088388 1.875000 -0.088388
v 0.000000 1.500000 -0.125000
v 0.000000 1.875000 -0.125000
v -0.088388 1.500000 -0.088388
v -0.088388 1.875000 -0.088388
v -0.125000 1.875000 -0.000000
v -0.088388 1.500000 0.088388
v -0.088388 1.875000 0.088388
vn -0.0000 0.8087 0.5882
vn -0.0000 0.8087 -0.5882
vn 0.5882 0.8087 -0.0000
vn -0.5882 0.8087 -0.0000
vn 0.4159 0.8087 0.4159
vn -0.4159 0.8087 -0.4159
vn 0.4159 0.8087 -0.4159
vn -0.4159 0.8087 0.4159
vn 0.3827 -0.0000 0.9239
vn -0.0000 1.0000 -0.0000
vn 0.9239 -0.0000 0.3827
vn 0.9239 -0.0000 -0.3827
vn 0.3827 -0.0000 -0.9239
vn -0.3827 -0.0000 -0.9239
vn -0.9239 -0.0000 -0.3827
vn 0.6786 -0.6786 -0.2811
vn -0.9239 -0.0000 0.3827
vn -0.3827 -0.0000 0.9239
vt 0.833333 0.485714
vt 0.923333 0.428571
vt 0.933333 0.485714
vt 0.833333 0.428571
vt 0.800000 0.514286
vt 0.800000 0.428571
vt 0.733333 0.457143
vt 0.743097 0.436940
vt 0.766667 0.457143
vt 0.766667 0.428571
vt 0.790237 0.436940
vt 0.800000 0.457143
vt 0.790237 0.477346
vt 0.766667 0.485714
vt 0.743097 0.477346
vt 0.833333 0.514286
s 1
f 212/193/27 213/194/27 211/195/27
f 216/193/28 217/194/28 215/195/28
f 220/193/29 221/194/29 219/195/29
f 224/193/30 225/194/30 223/195/30
f 228/193/31 229/194/31 227/195/31
f 232/193/32 233/194/32 231/195/32
f 236/193/33 237/194/33 235/195/33
f 240/193/34 241/194/34 239/195/34
f 248/196/35 247/197/35 246/198/35
f 247/199/36 249/200/36 245/201/36
f 250/196/37 249/197/37 248/198/37
f 249/200/36 251/202/36 245/201/36
f 252/196/38 251/197/38 250/198/38
f 251/202/36 253/203/36 245/201/36
f 254/196/39 253/197/39 252/198/39
f 253/203/36 255/204/36 245/201/36
f 256/196/40 255/197/40 254/198/40
f 255/204/36 257/205/36 245/201/36
f 243/196/41 257/197/41 256/198/41
f 257/205/36 258/206/36 245/201/36
f 259/200/42 243/202/42 244/201/42
f 259/196/43 258/197/43 243/198/43
f 258/206/36 260/207/36 245/201/36
f 246/196/44 260/197/44 259/198/44
f 260/207/36 247/199/36 245/201/36
f 212/193/27 214/196/27 213/194/27
f 216/193/28 218/196/28 217/194/28
f 220/193/29 222/196/29 221/194/29
f 224/193/30 226/196/30 225/194/30
f 228/193/31 230/196/31 229/194/31
f 232/193/32 234/196/32 233/194/32
f 236/193/33 238/196/33 237/194/33
f 240/193/34 242/196/34 241/194/34
f 248/196/35 249/208/35 247/197/35
f 250/196/37 251/208/37 249/197/37
f 252/196/38 253/208/38 251/197/38
f 254/196/39 255/208/39 253/197/39
f 256/196/40 257/208/40 255/197/40
f 243/196/41 258/208/41 257/197/41
f 259/196/43 260/208/43 258/197/43
f 246/196/44 247/208/44 260/197/44
