# Blender 4.0.1
# www.blender.org
o Base
v -1.000000 0.000000 1.000000
v 1.000000 0.000000 1.000000
v -1.000000 -0.000000 -1.000000
v 1.000000 -0.000000 -1.000000
v -0.875000 2.750000 0.875000
v 0.875000 2.750000 0.875000
v -0.875000 2.750000 -0.875000
v 0.875000 2.750000 -0.875000
v -1.000000 2.750000 -1.000000
v -1.000000 2.750000 1.000000
v 1.000000 2.750000 1.000000
v 1.000000 2.750000 -1.000000
v -0.625000 3.000000 -0.625000
v -0.625000 3.000000 0.625000
v 0.625000 3.000000 0.625000
v 0.625000 3.000000 -0.625000
v -0.875000 3.000000 -0.875000
v -0.875000 3.000000 0.875000
v 0.875000 3.000000 0.875000
v 0.875000 3.000000 -0.875000
v -0.625000 2.750000 -0.625000
v -0.625000 2.750000 0.625000
v 0.625000 2.750000 0.625000
v 0.625000 2.750000 -0.625000
v -0.625000 3.000000 -0.625000
v -0.625000 3.000000 0.625000
v 0.625000 3.000000 0.625000
v 0.625000 3.000000 -0.625000
v 0.000000 2.750000 0.875000
v 0.000000 3.000000 0.625000
v 0.000000 2.750000 0.625000
v 0.000000 2.750000 -0.875000
v 0.000000 2.750000 -0.625000
v 0.000000 3.000000 -0.625000
v 0.000000 3.000000 -0.875000
v 0.000000 3.000000 0.875000
v -0.875000 2.750000 -0.000000
v 0.875000 2.750000 -0.000000
v -0.625000 3.000000 -0.000000
v 0.625000 3.000000 -0.000000
v -0.625000 2.750000 -0.000000
v 0.625000 2.750000 -0.000000
v -0.875000 3.000000 -0.000000
v 0.875000 3.000000 -0.000000
v 0.000000 2.750000 -0.000000
vn 1.0000 -0.0000 -0.0000
vn -0.0000 -1.0000 -0.0000
vn -1.0000 -0.0000 -0.0000
vn -0.0000 1.0000 -0.0000
vn -0.0000 -0.0000 1.0000
vn -0.0000 -0.0000 -1.0000
vt 0.145455 0.750000
vt 0.054545 0.700000
vt 0.145455 0.700000
vt 0.290909 0.400000
vt -0.000000 -0.000000
vt 0.290909 -0.000000
vt 0.145455 0.650000
vt 0.018182 0.600000
vt 0.145455 0.600000
vt 0.690909 0.975000
vt 0.563636 0.975000
vt 0.418182 1.000000
vt 0.690909 0.625000
vt 0.690909 0.800000
vt 0.709091 1.000000
vt 0.436364 0.625000
vt 0.563636 0.625000
vt 0.709091 0.600000
vt 0.418182 0.737500
vt 0.236364 1.000000
vt 0.236364 0.737500
vt 0.236364 0.700000
vt 0.236364 0.875000
vt 0.145455 1.000000
vt 0.145455 0.875000
vt 0.272727 0.650000
vt 0.272727 0.600000
vt 0.236364 0.750000
vt 0.418182 0.550000
vt 0.709091 0.000000
vt 0.709091 0.550000
vt 0.054545 0.875000
vt 0.054545 0.750000
vt 0.054545 1.000000
vt 0.436364 0.975000
vt 0.436364 0.812500
vt 0.418182 0.600000
vt 0.418182 -0.000000
vt 1.000000 0.000000
vt 1.000000 0.550000
vt 0.000000 0.400000
vt 0.018182 0.650000
s 0
f 41/1/1 13/2/1 39/3/1
f 4/4/2 1/5/2 3/6/2
f 43/7/3 7/8/3 37/9/3
f 6/10/4 29/11/4 10/12/4
f 8/13/4 38/14/4 11/15/4
f 7/16/4 32/17/4 12/18/4
f 28/19/4 26/20/4 27/21/4
f 36/7/5 5/8/5 29/9/5
f 33/1/5 16/2/5 34/3/5
f 44/7/1 6/8/1 38/9/1
f 35/7/4 13/22/4 34/3/4
f 43/7/4 14/22/4 39/3/4
f 14/2/4 36/7/4 30/3/4
f 44/7/4 16/22/4 40/3/4
f 35/7/6 8/8/6 32/9/6
f 42/1/3 15/2/3 40/3/3
f 31/1/6 14/2/6 30/3/6
f 33/23/4 41/24/4 45/25/4
f 17/26/6 32/9/6 7/27/6
f 16/2/4 35/7/4 34/3/4
f 24/28/4 45/25/4 42/1/4
f 23/28/6 30/3/6 15/22/6
f 9/29/3 1/30/3 10/31/3
f 36/7/4 15/22/4 30/3/4
f 21/28/5 34/3/5 13/22/5
f 19/26/5 29/9/5 6/27/5
f 42/1/4 31/32/4 23/33/4
f 45/25/4 22/34/4 31/32/4
f 24/28/3 40/3/3 16/22/3
f 15/2/4 44/7/4 40/3/4
f 13/2/4 43/7/4 39/3/4
f 20/26/1 38/9/1 8/27/1
f 18/26/3 37/9/3 5/27/3
f 22/28/1 39/3/1 14/22/1
f 5/35/4 37/36/4 9/37/4
f 10/29/5 2/30/5 11/31/5
f 12/31/1 2/38/1 4/30/1
f 12/31/6 3/39/6 9/40/6
f 41/1/1 21/33/1 13/2/1
f 4/4/2 2/41/2 1/5/2
f 43/7/3 17/42/3 7/8/3
f 10/12/4 11/15/4 6/10/4
f 29/11/4 5/35/4 10/12/4
f 11/15/4 12/18/4 8/13/4
f 38/14/4 6/10/4 11/15/4
f 12/18/4 9/37/4 7/16/4
f 32/17/4 8/13/4 12/18/4
f 28/19/4 25/12/4 26/20/4
f 36/7/5 18/42/5 5/8/5
f 33/1/5 24/33/5 16/2/5
f 44/7/1 19/42/1 6/8/1
f 35/7/4 17/26/4 13/22/4
f 43/7/4 18/26/4 14/22/4
f 14/2/4 18/42/4 36/7/4
f 44/7/4 20/26/4 16/22/4
f 35/7/6 20/42/6 8/8/6
f 42/1/3 23/33/3 15/2/3
f 31/1/6 22/33/6 14/2/6
f 33/23/4 21/20/4 41/24/4
f 17/26/6 35/7/6 32/9/6
f 16/2/4 20/42/4 35/7/4
f 24/28/4 33/23/4 45/25/4
f 23/28/6 31/1/6 30/3/6
f 9/29/3 3/38/3 1/30/3
f 36/7/4 19/26/4 15/22/4
f 21/28/5 33/1/5 34/3/5
f 19/26/5 36/7/5 29/9/5
f 42/1/4 45/25/4 31/32/4
f 45/25/4 41/24/4 22/34/4
f 24/28/3 42/1/3 40/3/3
f 15/2/4 19/42/4 44/7/4
f 13/2/4 17/42/4 43/7/4
f 20/26/1 44/7/1 38/9/1
f 18/26/3 43/7/3 37/9/3
f 22/28/1 41/1/1 39/3/1
f 9/37/4 10/12/4 5/35/4
f 37/36/4 7/16/4 9/37/4
f 10/29/5 1/38/5 2/30/5
f 12/31/1 11/29/1 2/38/1
f 12/31/6 4/30/6 3/39/6
o Fan
v 0.000000 2.750000 -0.125000
v -0.108253 2.750000 -0.062500
v -0.108253 2.750000 0.062500
v 0.000000 2.750000 0.125000
v 0.108253 2.750000 0.062500
v 0.108253 2.750000 -0.062500
v 0.000000 2.875000 -0.125000
v -0.108253 2.875000 -0.062500
v -0.108253 2.875000 0.062500
v 0.000000 2.875000 0.125000
v 0.108253 2.875000 0.062500
v 0.108253 2.875000 -0.062500
v -0.108253 2.828676 -0.060370
v -0.108253 2.796324 0.060370
v -0.541266 2.873161 -0.226389
v -0.541266 2.751839 0.226389
v 0.001844 2.828676 0.123935
v 0.106409 2.796324 0.063565
v 0.074575 2.873161 0.581944
v 0.466691 2.751839 0.355556
v 0.106409 2.828676 -0.063565
v 0.001844 2.796324 -0.123935
v 0.466691 2.873161 -0.355556
v 0.074574 2.751839 -0.581944
vn -0.5000 -0.0000 0.8660
vn 0.5000 -0.0000 -0.8660
vn 0.5000 -0.0000 0.8660
vn -0.0000 1.0000 -0.0000
vn -0.5000 -0.0000 -0.8660
vn 1.0000 -0.0000 -0.0000
vn 0.2241 0.9659 -0.1294
vn -0.2241 0.9659 -0.1294
vn -0.0000 0.9659 0.2588
vn -1.0000 -0.0000 -0.0000
vt 0.381818 0.025000
vt 0.363636 0.000000
vt 0.381818 0.000000
vt 0.327273 0.025000
vt 0.309091 0.000000
vt 0.327273 0.000000
vt 0.400000 0.025000
vt 0.400000 0.000000
vt 0.318182 0.025000
vt 0.300000 0.075000
vt 0.300000 0.025000
vt 0.345455 0.025000
vt 0.345455 0.000000
vt 0.309091 0.025000
vt 0.290909 0.000000
vt 0.400000 0.125000
vt 0.354545 0.025000
vt 0.372727 0.025000
vt 0.327273 0.125000
vt 0.327273 0.050000
vt 0.318182 0.075000
vt 0.290909 0.050000
vt 0.363636 0.025000
vt 0.290909 0.025000
s 0
f 55/43/7 48/44/7 49/45/7
f 52/46/8 51/47/8 46/48/8
f 56/49/9 49/45/9 50/50/9
f 57/51/10 54/52/10 56/53/10
f 53/54/11 46/48/11 47/55/11
f 57/56/12 50/57/12 51/47/12
f 64/58/13 63/59/13 62/60/13
f 66/60/14 69/61/14 67/59/14
f 60/58/15 59/59/15 58/60/15
f 52/62/10 53/63/10 54/52/10
f 54/52/10 55/64/10 56/53/10
f 54/65/16 47/55/16 48/44/16
f 55/43/7 54/65/7 48/44/7
f 52/46/8 57/56/8 51/47/8
f 56/49/9 55/43/9 49/45/9
f 57/51/10 52/62/10 54/52/10
f 53/54/11 52/46/11 46/48/11
f 57/56/12 56/66/12 50/57/12
f 64/58/13 65/61/13 63/59/13
f 66/60/14 68/58/14 69/61/14
f 60/58/15 61/61/15 59/59/15
f 54/65/16 53/54/16 47/55/16
