# Made in Blockbench 5.0.4
mtllib fickle.mtl

o GOD
v 0.28125 0.53125 -0.28125
v 0.28125 1.09375 -0.28125
v 0.28125 0.53125 0.28125
v 0.28125 1.09375 0.28125
v 0.1875 0.5625 -0.1875
v 0.1875 0.375 -0.1875
v 0.1875 0.375 0.1875
v 0.1875 0.5625 0.1875
v 0.25 0 0.375001
v 0.25 0 -0.375001
v 0.416672 -0.03125 0.10834
v 0.416672 0.15625 0.10834
v 0.368143 -0.03125 0.289451
v 0.368143 0.15625 0.289451
v 0.416672 -0.03125 -0.10834
v 0.368143 -0.03125 -0.289451
v 0.416672 0.15625 -0.10834
v 0.368143 0.15625 -0.289451
v 0.0625 0.490847 0.045765
v 0.09375 0.115197 0.377221
v 0.09375 0.247779 0.509803
v 0.0625 0.490847 -0.045765
v 0.09375 0.115197 -0.377221
v 0.09375 0.247779 -0.509803
v 0.25 0.5625 -0.25
v 0.25 1.0625 -0.25
v 0.25 0.5625 0.25
v 0.25 1.0625 0.25
v 0.0625 0.579235 0.134153
v 0.0625 0.579235 -0.134153
v -0.28125 0.53125 -0.28125
v -0.28125 1.09375 -0.28125
v -0.28125 0.53125 0.28125
v -0.28125 1.09375 0.28125
v -0.1875 0.5625 -0.1875
v -0.1875 0.375 -0.1875
v -0.1875 0.375 0.1875
v -0.1875 0.5625 0.1875
v -0.25 0 0.375001
v -0.25 0 -0.375001
v -0.0625 0.490847 0.045765
v -0.09375 0.115197 0.377221
v -0.09375 0.247779 0.509803
v -0.0625 0.490847 -0.045765
v -0.09375 0.115197 -0.377221
v -0.09375 0.247779 -0.509803
v -0.25 0.5625 -0.25
v -0.25 1.0625 -0.25
v -0.25 0.5625 0.25
v -0.25 1.0625 0.25
v -0.0625 0.579235 0.134153
v -0.0625 0.579235 -0.134153
v -0.066291 0.15625 -0.02107
v -0.066291 -0.03125 -0.02107
v -0.11482 -0.03125 0.160041
v -0.066291 0.15625 0.02107
v -0.066291 -0.03125 0.02107
v -0.11482 -0.03125 -0.160041
v -0.11482 0.15625 0.160041
v -0.11482 0.15625 -0.160041
vt 0.5 1
vt 0.375 0.75
vt 0.5 0.75
vt 0.375 1
vt 0.25 0.75
vt 0.375 0.75
vt 0.75 1
vt 0.625 0.75
vt 0.75 0.75
vt 0.25 0.75
vt 0.375 0.5
vt 0.375 0.75
vt 0.984375 0.65625
vt 0.890625 0.75
vt 0.890625 0.65625
vt 0.984375 0.65625
vt 0.890625 0.75
vt 0.890625 0.65625
vt 0.640625 0.65625
vt 0.546875 0.75
vt 0.546875 0.65625
vt 0.890625 0.65625
vt 1 0.46875
vt 0.984375 0.65625
vt 0.546875 0.65625
vt 0.6875 0.46875
vt 0.640625 0.65625
vt 0.890625 0.65625
vt 1 0.46875
vt 0.984375 0.65625
vt 0.75 0.75
vt 0.9375 1
vt 0.75 1
vt 0.234375 0.03125
vt 0.359375 0.125
vt 0.234375 0.125
vt 0.40625 0.3125
vt 0.359375 0.40625
vt 0.359375 0.3125
vt 0.359375 0.21875
vt 0.234375 0.125
vt 0.359375 0.125
vt 0.359375 0.21875
vt 0.234375 0.3125
vt 0.234375 0.21875
vt 0.234375 0.40625
vt 0.359375 0.3125
vt 0.359375 0.40625
vt 0.359375 0.125
vt 0.234375 0.03125
vt 0.234375 0.125
vt 0.359375 0.40625
vt 0.40625 0.3125
vt 0.359375 0.3125
vt 0.234375 0.125
vt 0.359375 0.21875
vt 0.359375 0.125
vt 0.234375 0.21875
vt 0.359375 0.3125
vt 0.359375 0.21875
vt 0.359375 0.3125
vt 0.234375 0.40625
vt 0.359375 0.40625
vt 0.421875 0.484375
vt 0.296875 0.40625
vt 0.421875 0.421875
vt 0.171875 0.5
vt 0.125 0.40625
vt 0.171875 0.40625
vt 0.171875 0.40625
vt 0.296875 0.484375
vt 0.171875 0.5
vt 0.421875 0.421875
vt 0.296875 0.5
vt 0.296875 0.40625
vt 0.421875 0.125
vt 0.546875 0.203125
vt 0.546875 0.140625
vt 0.546875 0.21875
vt 0.59375 0.3125
vt 0.59375 0.21875
vt 0.546875 0.203125
vt 0.421875 0.125
vt 0.421875 0.21875
vt 0.421875 0.3125
vt 0.546875 0.234375
vt 0.421875 0.21875
vt 0 0.25
vt 0.125 0.5
vt 0 0.5
vt 0.25 1
vt 0 0.5
vt 0.25 0.5
vt 0.125 0.25
vt 0 0.5
vt 0 0.25
vt 0 0.5
vt 0.125 0.25
vt 0.125 0.5
vt 0 0.25
vt 0.125 0.5
vt 0 0.5
vt 0.5 1
vt 0.375 1
vt 0.375 0.75
vt 0.375 1
vt 0.25 1
vt 0.25 0.75
vt 0.75 1
vt 0.625 1
vt 0.625 0.75
vt 0.25 0.75
vt 0.25 0.5
vt 0.375 0.5
vt 0.984375 0.65625
vt 0.984375 0.75
vt 0.890625 0.75
vt 0.984375 0.65625
vt 0.984375 0.75
vt 0.890625 0.75
vt 0.640625 0.65625
vt 0.640625 0.75
vt 0.546875 0.75
vt 0.890625 0.65625
vt 0.875 0.46875
vt 1 0.46875
vt 0.546875 0.65625
vt 0.5 0.46875
vt 0.6875 0.46875
vt 0.890625 0.65625
vt 0.875 0.46875
vt 1 0.46875
vt 0.75 0.75
vt 0.9375 0.75
vt 0.9375 1
vt 0.234375 0.03125
vt 0.359375 0.03125
vt 0.359375 0.125
vt 0.40625 0.3125
vt 0.40625 0.40625
vt 0.359375 0.40625
vt 0.359375 0.21875
vt 0.234375 0.21875
vt 0.234375 0.125
vt 0.359375 0.21875
vt 0.359375 0.3125
vt 0.234375 0.3125
vt 0.234375 0.40625
vt 0.234375 0.3125
vt 0.359375 0.3125
vt 0.359375 0.125
vt 0.359375 0.03125
vt 0.234375 0.03125
vt 0.359375 0.40625
vt 0.40625 0.40625
vt 0.40625 0.3125
vt 0.234375 0.125
vt 0.234375 0.21875
vt 0.359375 0.21875
vt 0.234375 0.21875
vt 0.234375 0.3125
vt 0.359375 0.3125
vt 0.359375 0.3125
vt 0.234375 0.3125
vt 0.234375 0.40625
vt 0.421875 0.484375
vt 0.296875 0.5
vt 0.296875 0.40625
vt 0.171875 0.5
vt 0.125 0.5
vt 0.125 0.40625
vt 0.171875 0.40625
vt 0.296875 0.421875
vt 0.296875 0.484375
vt 0.421875 0.421875
vt 0.421875 0.484375
vt 0.296875 0.5
vt 0.421875 0.125
vt 0.421875 0.21875
vt 0.546875 0.203125
vt 0.546875 0.21875
vt 0.546875 0.3125
vt 0.59375 0.3125
vt 0.546875 0.203125
vt 0.546875 0.140625
vt 0.421875 0.125
vt 0.421875 0.3125
vt 0.546875 0.296875
vt 0.546875 0.234375
vt 0 0.25
vt 0.125 0.25
vt 0.125 0.5
vt 0.25 1
vt 0 1
vt 0 0.5
vt 0.125 0.25
vt 0.125 0.5
vt 0 0.5
vt 0 0.5
vt 0 0.25
vt 0.125 0.25
vt 0 0.25
vt 0.125 0.25
vt 0.125 0.5
vt 0.5 0.75
vt 0.625 1
vt 0.625 0.75
vt 0.734375 0.75
vt 0.828125 0.65625
vt 0.734375 0.65625
vt 0.875 0.46875
vt 0.734375 0.65625
vt 0.828125 0.65625
vt 0.296875 0.40625
vt 0.421875 0.484375
vt 0.296875 0.5
vt 0.546875 0.140625
vt 0.421875 0.21875
vt 0.421875 0.125
vt 0 0.5
vt 0.125 0.25
vt 0.125 0.5
vt 0.5 1
vt 0.625 1
vt 0.5 0.75
vt 0.828125 0.75
vt 0.828125 0.65625
vt 0.734375 0.75
vt 0.6875 0.46875
vt 0.734375 0.65625
vt 0.875 0.46875
vt 0.421875 0.421875
vt 0.421875 0.484375
vt 0.296875 0.40625
vt 0.546875 0.203125
vt 0.421875 0.21875
vt 0.546875 0.140625
vt 0 0.25
vt 0.125 0.25
vt 0 0.5
vt 0.40625 0.3125
vt 0.359375 0.3125
vt 0.40625 0.21875
vt 0.359375 0.3125
vt 0.359375 0.21875
vt 0.40625 0.3125
vt 0.359375 0.3125
vt 0.359375 0.21875
vt 0.40625 0.21875
vt 0.40625 0.3125
vt 0.359375 0.21875
vt 0.40625 0.21875
vn 0 0 -1
vn 1 0 0
vn 0 0 1
vn 0 1 0
vn 0 0 -1
vn 0 0 1
vn 1 0 0
vn 0 0.44721550360824586 0.894426236943228
vn 0.9863939238321437 0.1643989873053573 0
vn 0 0.44721550360824586 -0.894426236943228
vn 0 -1 0
vn 0.2588198926058137 0 -0.9659255992008469
vn 0.9659252212070232 0 0.258821303288898
vn -0.25881989260581373 0 0.9659255992008469
vn 0 -1 0
vn 0 1 0
vn 0.2588198926058137 0 0.9659255992008469
vn 0.9659252212070232 0 -0.258821303288898
vn -0.25881989260581373 0 -0.9659255992008469
vn 0 -1 0
vn 0 1 0
vn 0 -0.6616217691250678 -0.7498377388607589
vn 0 -0.7071067811865476 0.7071067811865475
vn 0 0.7498377388607588 0.6616217691250678
vn 0.9980525741925579 0.04410815767864711 -0.0441081576786471
vn 0 -0.6616217691250678 0.7498377388607589
vn 0 -0.7071067811865476 -0.7071067811865475
vn 0 0.7498377388607588 -0.6616217691250678
vn 0.9980525741925579 0.044108157678647106 0.04410815767864709
vn 0 0 -1
vn 1 0 0
vn 0 0 1
vn 0 -1 0
vn 0 1 0
vn 0 0 -1
vn 1 0 0
vn 0 0 1
vn 0 1 0
vn 0 0 -1
vn 0 0 1
vn 1 0 0
vn 0 0.44721550360824575 0.8944262369432279
vn 0.9863939238321437 0.16439898730535726 0
vn 0 0.44721550360824575 -0.8944262369432279
vn 0 -1 0
vn 0.2588198926058137 0 -0.9659255992008469
vn 0.9659252212070232 0 0.258821303288898
vn -0.25881989260581373 0 0.9659255992008469
vn 0 -1 0
vn 0 1 0
vn 0.2588198926058137 0 0.9659255992008469
vn 0.9659252212070232 0 -0.258821303288898
vn -0.25881989260581373 0 -0.9659255992008469
vn 0 -1 0
vn 0 1 0
vn 0 -0.6616217691250678 -0.7498377388607589
vn 0 -0.7071067811865476 0.7071067811865475
vn 0 0.7498377388607588 0.6616217691250678
vn 0.9980525741925579 0.04410815767864707 -0.04410815767864711
vn 0 -0.6616217691250678 0.7498377388607589
vn 0 -0.7071067811865476 -0.7071067811865475
vn 0 0.7498377388607588 -0.6616217691250678
vn 0.9980525741925579 0.04410815767864706 0.04410815767864713
vn 0 0 -1
vn 1 0 0
vn 0 0 1
vn 0 -1 0
vn 0 1 0
vn -1 0 0
vn -1 0 0
vn -0.9863939238321437 0.1643989873053573 0
vn -0.9980525741925579 0.044108157678647106 -0.04410815767864709
vn -0.9980525741925579 0.04410815767864711 0.0441081576786471
vn -1 0 0
vn -1 0 0
vn -1 0 0
vn -0.9863939238321437 0.1643989873053573 0
vn -0.9980525741925579 0.044108157678647064 -0.044108157678647106
vn -0.9980525741925579 0.044108157678647064 0.044108157678647106
vn -1 0 0
vn -0.965925221207023 0 0.25882130328889813
vn -0.965925221207023 0 -0.25882130328889813
vn -0.965925221207023 0 0.25882130328889813
vn -0.965925221207023 0 -0.25882130328889813
usemtl m_86b6a805-b120-8535-3d1f-f308f44d4e0f
f 32/1/1 1/2/1 31/3/1
f 2/4/2 3/5/2 1/6/2
f 4/7/3 33/8/3 3/9/3
f 32/10/4 4/11/4 2/12/4
f 36/13/5 5/14/5 6/15/5
f 7/16/6 38/17/6 37/18/6
f 6/19/7 8/20/7 7/21/7
f 37/22/8 9/23/8 7/24/8
f 7/25/9 10/26/9 6/27/9
f 6/28/10 40/29/10 36/30/10
f 10/31/11 39/32/11 40/33/11
f 53/34/12 11/35/12 54/36/12
f 12/37/13 13/38/13 11/39/13
f 14/40/14 55/41/14 13/42/14
f 11/43/15 55/44/15 54/45/15
f 53/46/16 14/47/16 12/48/16
f 15/49/17 56/50/17 57/51/17
f 16/52/18 17/53/18 15/54/18
f 58/55/19 18/56/19 16/57/19
f 57/58/20 16/59/20 15/60/20
f 18/61/21 56/62/21 17/63/21
f 19/64/22 42/65/22 41/66/22
f 20/67/23 43/68/23 42/69/23
f 21/70/24 51/71/24 43/72/24
f 19/73/25 21/74/25 20/75/25
f 45/76/26 22/77/26 44/78/26
f 46/79/27 23/80/27 45/81/27
f 52/82/28 24/83/28 46/84/28
f 24/85/29 22/86/29 23/87/29
f 48/88/30 25/89/30 47/90/30
f 26/91/31 27/92/31 25/93/31
f 28/94/32 49/95/32 27/96/32
f 25/97/33 49/98/33 47/99/33
f 48/100/34 28/101/34 26/102/34
f 32/103/35 2/104/35 1/105/35
f 2/106/36 4/107/36 3/108/36
f 4/109/37 34/110/37 33/111/37
f 32/112/38 34/113/38 4/114/38
f 36/115/39 35/116/39 5/117/39
f 7/118/40 8/119/40 38/120/40
f 6/121/41 5/122/41 8/123/41
f 37/124/42 39/125/42 9/126/42
f 7/127/43 9/128/43 10/129/43
f 6/130/44 10/131/44 40/132/44
f 10/133/45 9/134/45 39/135/45
f 53/136/46 12/137/46 11/138/46
f 12/139/47 14/140/47 13/141/47
f 14/142/48 59/143/48 55/144/48
f 11/145/49 13/146/49 55/147/49
f 53/148/50 59/149/50 14/150/50
f 15/151/51 17/152/51 56/153/51
f 16/154/52 18/155/52 17/156/52
f 58/157/53 60/158/53 18/159/53
f 57/160/54 58/161/54 16/162/54
f 18/163/55 60/164/55 56/165/55
f 19/166/56 20/167/56 42/168/56
f 20/169/57 21/170/57 43/171/57
f 21/172/58 29/173/58 51/174/58
f 19/175/59 29/176/59 21/177/59
f 45/178/60 23/179/60 22/180/60
f 46/181/61 24/182/61 23/183/61
f 52/184/62 30/185/62 24/186/62
f 24/187/63 30/188/63 22/189/63
f 48/190/64 26/191/64 25/192/64
f 26/193/65 28/194/65 27/195/65
f 28/196/66 50/197/66 49/198/66
f 25/199/67 27/200/67 49/201/67
f 48/202/68 50/203/68 28/204/68
f 33/205/69 32/206/69 31/207/69
f 38/208/70 36/209/70 37/210/70
f 40/211/71 37/212/71 36/213/71
f 43/214/72 41/215/72 42/216/72
f 44/217/73 46/218/73 45/219/73
f 49/220/74 48/221/74 47/222/74
f 34/223/75 32/224/75 33/225/75
f 35/226/76 36/227/76 38/228/76
f 39/229/77 37/230/77 40/231/77
f 51/232/78 41/233/78 43/234/78
f 52/235/79 46/236/79 44/237/79
f 50/238/80 48/239/80 49/240/80
f 56/241/81 60/242/81 57/243/81
f 53/244/82 54/245/82 59/246/82
f 60/247/83 58/248/83 57/249/83
f 59/250/84 54/251/84 55/252/84
o cuboid
v 0.0625 1.4375 0.15625
v 0.0625 1.4375 0.03125
v 0.0625 1.0625 0.15625
v 0.0625 1.0625 0.03125
v -0.0625 1.4375 0.15625
v -0.0625 1.4375 0.03125
v -0.0625 1.0625 0.15625
v -0.0625 1.0625 0.03125
vt 0.03125 0.25
vt 0 0.25
vt 0 0.0625
vt 0 0.0625
vt 0.03125 0.0625
vt 0.03125 0.25
vt 0.03125 0.0625
vt 0.03125 0.25
vt 0 0.0625
vt 0.03125 0.25
vt 0 0.25
vt 0 0.0625
vt 0 0
vt 0.03125 0
vt 0.03125 0.0625
vt 0.03125 0.0625
vt 0 0.0625
vt 0 0
vt 0.03125 0
vt 0.03125 0.0625
vt 0 0
vt 0.03125 0.0625
vt 0 0.0625
vt 0 0
vt 0.03125 0.0625
vt 0.03125 0.25
vt 0 0.25
vt 0 0.25
vt 0 0.0625
vt 0.03125 0.0625
vt 0.03125 0.25
vt 0 0.25
vt 0.03125 0.0625
vt 0 0.25
vt 0 0.0625
vt 0.03125 0.0625
vn 1 0 0
vn 1 0 0
vn -1 0 0
vn -1 0 0
vn 0 1 0
vn 0 1 0
vn 0 -1 0
vn 0 -1 0
vn 0 0 1
vn 0 0 1
vn 0 0 -1
vn 0 0 -1
usemtl m_86b6a805-b120-8535-3d1f-f308f44d4e0f
f 62/253/85 61/254/85 63/255/85
f 63/256/86 64/257/86 62/258/86
f 67/259/87 65/260/87 68/261/87
f 65/262/88 66/263/88 68/264/88
f 65/265/89 61/266/89 62/267/89
f 62/268/90 66/269/90 65/270/90
f 64/271/91 63/272/91 68/273/91
f 63/274/92 67/275/92 68/276/92
f 63/277/93 61/278/93 65/279/93
f 65/280/94 67/281/94 63/282/94
f 66/283/95 62/284/95 68/285/95
f 62/286/96 64/287/96 68/288/96
o cuboid
v 0.0625 1.4375 -0.03125
v 0.0625 1.4375 -0.15625
v 0.0625 1.0625 -0.03125
v 0.0625 1.0625 -0.15625
v -0.0625 1.4375 -0.03125
v -0.0625 1.4375 -0.15625
v -0.0625 1.0625 -0.03125
v -0.0625 1.0625 -0.15625
vt 0.03125 0.25
vt 0 0.25
vt 0.03125 0.0625
vt 0 0.25
vt 0 0.0625
vt 0.03125 0.0625
vt 0.03125 0.0625
vt 0.03125 0.25
vt 0 0.25
vt 0 0.25
vt 0 0.0625
vt 0.03125 0.0625
vt 0 0
vt 0.03125 0
vt 0 0.0625
vt 0.03125 0
vt 0.03125 0.0625
vt 0 0.0625
vt 0.03125 0
vt 0.03125 0.0625
vt 0 0.0625
vt 0 0.0625
vt 0 0
vt 0.03125 0
vt 0.03125 0.0625
vt 0.03125 0.25
vt 0 0.0625
vt 0.03125 0.25
vt 0 0.25
vt 0 0.0625
vt 0.03125 0.25
vt 0 0.25
vt 0 0.0625
vt 0 0.0625
vt 0.03125 0.0625
vt 0.03125 0.25
vn 1 0 0
vn 1 0 0
vn -1 0 0
vn -1 0 0
vn 0 1 0
vn 0 1 0
vn 0 -1 0
vn 0 -1 0
vn 0 0 1
vn 0 0 1
vn 0 0 -1
vn 0 0 -1
usemtl m_86b6a805-b120-8535-3d1f-f308f44d4e0f
f 70/289/97 69/290/97 72/291/97
f 69/292/98 71/293/98 72/294/98
f 75/295/99 73/296/99 74/297/99
f 74/298/100 76/299/100 75/300/100
f 73/301/101 69/302/101 74/303/101
f 69/304/102 70/305/102 74/306/102
f 72/307/103 71/308/103 75/309/103
f 75/310/104 76/311/104 72/312/104
f 71/313/105 69/314/105 75/315/105
f 69/316/106 73/317/106 75/318/106
f 74/319/107 70/320/107 72/321/107
f 72/322/108 76/323/108 74/324/108