# Blender 3.4.1
# www.blender.org
mtllib balefire_angel.mtl
o body
v 0.125000 0.437500 -0.187500
v 0.125000 0.437500 -0.312500
v 0.125000 0.312500 -0.187500
v 0.125000 0.312500 -0.312500
v -0.125000 0.437500 -0.187500
v -0.125000 0.437500 -0.312500
v -0.125000 0.312500 -0.187500
v -0.125000 0.312500 -0.312500
v 0.062500 0.500000 -0.187500
v 0.062500 0.500000 -0.312500
v -0.062500 0.500000 -0.187500
v -0.062500 0.500000 -0.312500
v 0.062500 0.250000 -0.187500
v -0.062500 0.250000 -0.187500
v 0.062500 0.250000 -0.312500
v -0.062500 0.250000 -0.312500
v 0.062500 0.437500 -0.312500
v 0.062500 0.312500 -0.312500
v -0.062500 0.437500 -0.312500
v -0.062500 0.312500 -0.312500
v 0.062500 0.437500 -0.250000
v 0.062500 0.312500 -0.250000
v -0.062500 0.437500 -0.250000
v -0.062500 0.312500 -0.250000
v 0.031250 0.406250 -0.312500
v 0.031250 0.343750 -0.312500
v -0.031250 0.406250 -0.312500
v -0.031250 0.343750 -0.312500
v 0.125000 0.625000 0.125000
v 0.125000 0.625000 -0.125000
v -0.125000 0.625000 0.125000
v -0.125000 0.625000 -0.125000
v 0.125000 0.125000 0.125000
v 0.125000 0.125000 -0.125000
v -0.125000 0.125000 0.125000
v -0.125000 0.125000 -0.125000
v -0.250000 0.250000 0.125000
v -0.250000 0.500000 0.125000
v -0.250000 0.250000 -0.125000
v -0.250000 0.500000 -0.125000
v 0.250000 0.250000 0.125000
v 0.250000 0.500000 0.125000
v 0.250000 0.250000 -0.125000
v 0.250000 0.500000 -0.125000
v 0.125000 0.250000 -0.250000
v 0.125000 0.500000 -0.250000
v -0.125000 0.250000 -0.250000
v -0.125000 0.500000 -0.250000
v 0.125000 0.250000 0.250000
v 0.125000 0.500000 0.250000
v -0.125000 0.250000 0.250000
v -0.125000 0.500000 0.250000
v 0.250000 0.437500 0.062500
v 0.250000 0.312500 0.062500
v 0.250000 0.437500 -0.125000
v 0.250000 0.312500 -0.125000
v 0.125000 0.312500 -0.250000
v 0.125000 0.437500 -0.250000
v -0.125000 0.437500 -0.250000
v -0.125000 0.312500 -0.250000
v -0.250000 0.312500 -0.125000
v -0.250000 0.437500 -0.125000
v -0.250000 0.312500 0.062500
v -0.250000 0.437500 0.062500
v 0.187500 0.437500 0.062500
v 0.187500 0.312500 0.062500
v 0.187500 0.437500 -0.125000
v 0.187500 0.312500 -0.125000
v 0.125000 0.312500 -0.187500
v 0.125000 0.437500 -0.187500
v -0.125000 0.437500 -0.187500
v -0.125000 0.312500 -0.187500
v -0.187500 0.312500 -0.125000
v -0.187500 0.437500 -0.125000
v -0.187500 0.312500 0.062500
v -0.187500 0.437500 0.062500
vn 0.7173 0.2971 -0.6303
vn 0.9239 0.3827 -0.0000
vn 0.9239 -0.3827 -0.0000
vn 0.7173 -0.2971 -0.6303
vn -0.9239 -0.3827 -0.0000
vn -0.9239 0.3827 -0.0000
vn -0.7173 0.2971 -0.6303
vn -0.7173 -0.2971 -0.6303
vn -0.3827 0.9239 -0.0000
vn 0.3827 0.9239 -0.0000
vn 0.2971 0.7173 -0.6303
vn -0.2971 0.7173 -0.6303
vn 0.2971 -0.7173 -0.6303
vn 0.3827 -0.9239 -0.0000
vn -0.3827 -0.9239 -0.0000
vn -0.2971 -0.7173 -0.6303
vn -0.4248 0.4248 -0.7994
vn 0.4248 0.4248 -0.7994
vn 0.4248 -0.4248 -0.7994
vn -0.4248 -0.4248 -0.7994
vn -0.5774 0.5774 -0.5774
vn -0.5774 -0.5774 -0.5774
vn 0.5774 -0.5774 -0.5774
vn 0.5774 0.5774 -0.5774
vn -0.4224 -0.4224 -0.8019
vn 0.4224 -0.4224 -0.8019
vn -0.4224 0.4224 -0.8019
vn 0.4224 0.4224 -0.8019
vn 0.5491 -0.8042 -0.2275
vn 0.5491 0.8042 -0.2275
vn -0.5491 -0.8042 -0.2275
vn -0.5491 0.8042 -0.2275
vn 0.3416 0.8756 0.3416
vn 0.3416 0.8756 -0.3416
vn -0.3416 0.8756 -0.3416
vn -0.3416 0.8756 0.3416
vn -0.3416 -0.8756 -0.3416
vn 0.3416 -0.8756 -0.3416
vn 0.3416 -0.8756 0.3416
vn -0.3416 -0.8756 0.3416
vn 0.3416 -0.3416 0.8756
vn 0.3416 0.3416 0.8756
vn -0.3416 0.3416 0.8756
vn -0.3416 -0.3416 0.8756
vn 0.8756 0.3416 0.3416
vn 0.8756 0.3416 -0.3416
vn -0.8756 0.3416 0.3416
vn -0.8756 0.3416 -0.3416
vn 0.3416 0.3416 -0.8756
vn -0.3416 0.3416 -0.8756
vn 0.8756 -0.3416 0.3416
vn 0.8756 -0.3416 -0.3416
vn -0.8756 -0.3416 0.3416
vn -0.8756 -0.3416 -0.3416
vn 0.3416 -0.3416 -0.8756
vn -0.3416 -0.3416 -0.8756
vn 0.3922 0.8321 -0.3922
vn 0.3922 -0.8321 -0.3922
vn -0.3922 -0.8321 -0.3922
vn -0.3922 0.8321 -0.3922
vn 0.9045 -0.3015 -0.3015
vn 0.7173 -0.6303 -0.2971
vn 0.9045 0.3015 -0.3015
vn 0.7173 0.6303 -0.2971
vn 0.3694 0.2612 -0.8918
vn 0.3694 -0.2612 -0.8918
vn -0.3694 -0.2612 -0.8918
vn -0.3694 0.2612 -0.8918
vn -0.7173 0.6303 -0.2971
vn -0.7173 -0.6303 -0.2971
vn -0.9045 -0.3015 -0.3015
vn -0.9045 0.3015 -0.3015
vt 0.198276 0.807692
vt 0.224138 0.807692
vt 0.224138 0.980769
vt 0.198276 0.769231
vt 0.215517 1.000000
vt 0.224138 0.769231
vt 0.224138 1.000000
vt 0.224138 0.942308
vt 0.198276 0.884615
vt 0.224138 0.884615
vt 0.258621 0.980769
vt 0.198276 0.923077
vt 0.224138 0.923077
vt 0.258621 0.942308
vt 0.198276 0.826923
vt 0.224138 0.826923
vt 0.232759 1.000000
vt 0.198276 0.865385
vt 0.250000 1.000000
vt 0.224138 0.865385
vt 0.215517 0.980769
vt 0.215517 0.942308
vt 0.224138 0.980769
vt 0.232759 0.923077
vt 0.224138 0.942308
vt 0.250000 0.923077
vt 0.232759 0.980769
vt 0.224138 0.980769
vt 0.232759 0.942308
vt 0.224138 0.942308
vt 0.232759 0.923077
vt 0.250000 0.980769
vt 0.258621 0.980769
vt 0.250000 0.942308
vt 0.250000 0.923077
vt 0.258621 0.942308
vt 0.232759 1.000000
vt 0.232759 0.980769
vt 0.232759 0.923077
vt 0.224138 0.903846
vt 0.232759 0.942308
vt 0.224138 0.865385
vt 0.232759 0.846154
vt 0.250000 1.000000
vt 0.250000 0.980769
vt 0.250000 0.923077
vt 0.258621 0.903846
vt 0.250000 0.942308
vt 0.250000 0.846154
vt 0.258621 0.865385
vt 0.232759 0.903846
vt 0.232759 0.865385
vt 0.250000 0.903846
vt 0.250000 0.865385
vt 0.051724 0.923077
vt 0.034483 0.923077
vt 0.034483 1.000000
vt 0.086207 0.923077
vt 0.103448 0.923077
vt 0.189655 0.923077
vt 0.000000 0.923077
vt 0.198276 0.923077
vt 0.000000 1.000000
vt 0.155172 0.923077
vt 0.137931 0.923077
vt 0.051724 0.769231
vt 0.034483 0.769231
vt 0.034483 0.692308
vt 0.086207 0.769231
vt 0.103448 0.769231
vt 0.189655 0.769231
vt 0.000000 0.769231
vt 0.198276 0.769231
vt 0.000000 0.692308
vt 0.155172 0.769231
vt 0.137931 0.769231
vt 0.189655 0.807692
vt 0.189655 0.884615
vt 0.155172 0.807692
vt 0.155172 0.884615
vt 0.051724 0.807692
vt 0.051724 0.884615
vt 0.086207 0.807692
vt 0.086207 0.884615
vt 0.103448 0.807692
vt 0.103448 0.884615
vt 0.137931 0.807692
vt 0.137931 0.884615
vt 0.034483 0.807692
vt 0.034483 0.884615
vt 0.000000 0.807692
vt 0.198276 0.807692
vt 0.000000 0.884615
vt 0.198276 0.884615
vt 0.060345 0.865385
vt 0.060345 0.884615
vt 0.051724 0.865385
vt 0.060345 0.826923
vt 0.051724 0.826923
vt 0.060345 0.807692
vt 0.086207 0.865385
vt 0.086207 0.884615
vt 0.137931 0.865385
vt 0.086207 0.826923
vt 0.086207 0.807692
vt 0.112069 0.826923
vt 0.103448 0.826923
vt 0.094828 0.865385
vt 0.103448 0.865385
vt 0.120690 0.826923
vt 0.137931 0.865385
vt 0.112069 0.826923
vt 0.137931 0.826923
vt 0.146552 0.865385
vt 0.155172 0.826923
vt 0.129310 0.826923
vt 0.155172 0.807692
vt 0.155172 0.865385
vt 0.400000 0.562500
vt 0.103448 0.865385
vt 0.155172 0.884615
vt 0.172414 0.826923
vt 0.189655 0.826923
vt 0.172414 0.807692
vt 0.172414 0.865385
vt 0.189655 0.865385
vt 0.172414 0.884615
vt 0.060345 0.865385
vt 0.060345 0.826923
vt 0.086207 0.865385
vt 0.129310 0.865385
vt 0.086207 0.826923
vt 0.103448 0.826923
vt 0.094828 0.826923
vt 0.094828 0.865385
vt 0.120690 0.846154
vt 0.146552 0.865385
vt 0.466667 0.500000
vt 0.120690 0.846154
vt 0.146552 0.826923
vt 0.146552 0.846154
vt 0.137931 0.826923
vt 0.155172 0.826923
vt 0.433333 0.562500
vt 0.155172 0.865385
vt 0.172414 0.826923
vt 0.172414 0.865385
s 1
usemtl Material.001
f 2/2/1 1/1/2 3/4/3
f 2/2/1 3/4/3 4/6/4
f 7/12/5 5/9/6 6/10/7
f 7/12/5 6/10/7 8/13/8
f 11/18/9 9/15/10 10/16/11
f 11/18/9 10/16/11 12/20/12
f 15/23/13 13/21/14 14/22/15
f 15/23/13 14/22/15 16/25/16
f 27/53/17 25/51/18 26/52/19
f 27/53/17 26/52/19 28/54/20
f 10/16/11 9/15/10 1/1/2
f 10/16/11 1/1/2 2/2/1
f 12/19/12 10/17/11 2/3/1
f 12/19/12 2/3/1 6/11/7
f 11/18/9 12/20/12 6/10/7
f 11/18/9 6/10/7 5/9/6
f 13/21/14 15/23/13 4/7/4
f 13/21/14 4/7/4 3/5/3
f 16/25/16 14/22/15 7/12/5
f 16/25/16 7/12/5 8/13/8
f 15/24/13 16/26/16 8/14/8
f 15/24/13 8/14/8 4/8/4
f 18/29/21 17/27/22 2/3/1
f 18/29/21 2/3/1 4/8/4
f 19/32/23 20/34/24 8/14/8
f 19/32/23 8/14/8 6/11/7
f 21/37/25 23/44/26 19/32/23
f 21/37/25 19/32/23 17/27/22
f 22/41/27 21/38/25 17/28/22
f 22/41/27 17/28/22 18/30/21
f 24/48/28 22/41/27 18/31/21
f 24/48/28 18/31/21 20/35/24
f 23/45/26 24/48/28 20/36/24
f 23/45/26 20/36/24 19/33/23
f 25/51/18 27/53/17 23/46/26
f 25/51/18 23/46/26 21/39/25
f 26/52/19 25/51/18 21/40/25
f 26/52/19 21/40/25 22/42/27
f 28/54/20 26/52/19 22/43/27
f 28/54/20 22/43/27 24/49/28
f 27/53/17 28/54/20 24/50/28
f 27/53/17 24/50/28 23/47/26
f 67/130/29 65/128/23 66/129/24
f 67/130/29 66/129/24 68/132/30
f 75/146/21 76/147/22 74/145/31
f 75/146/21 74/145/31 73/143/32
f 29/56/33 30/57/34 32/63/35
f 29/56/33 32/63/35 31/61/36
f 36/74/37 34/68/38 33/67/39
f 36/74/37 33/67/39 35/72/40
f 49/89/41 50/90/42 52/93/43
f 49/89/41 52/93/43 51/91/44
f 30/58/34 29/55/33 42/82/45
f 30/58/34 42/82/45 44/84/46
f 38/78/47 31/60/36 32/64/35
f 38/78/47 32/64/35 40/80/48
f 50/90/42 29/56/33 31/61/36
f 50/90/42 31/61/36 52/93/43
f 32/65/35 30/59/34 46/86/49
f 32/65/35 46/86/49 48/88/50
f 41/81/51 33/66/39 34/69/38
f 41/81/51 34/69/38 43/83/52
f 36/75/37 35/71/40 37/77/53
f 36/75/37 37/77/53 39/79/54
f 35/72/40 33/67/39 49/89/41
f 35/72/40 49/89/41 51/91/44
f 45/85/55 34/70/38 36/76/37
f 45/85/55 36/76/37 47/87/56
f 68/132/30 69/134/57 70/135/58
f 68/132/30 70/135/58 67/130/29
f 50/90/42 49/89/41 41/81/51
f 50/90/42 41/81/51 42/82/45
f 71/137/59 72/140/60 73/143/32
f 71/137/59 73/143/32 74/145/31
f 37/77/53 51/92/44 52/94/43
f 37/77/53 52/94/43 38/78/47
f 33/67/39 41/81/51 49/89/41
f 35/73/40 51/92/44 37/77/53
f 34/70/38 45/85/55 43/83/52
f 36/76/37 39/79/54 47/87/56
f 29/56/33 50/90/42 42/82/45
f 31/62/36 38/78/47 52/94/43
f 30/59/34 44/84/46 46/86/49
f 32/65/35 48/88/50 40/80/48
f 53/95/61 55/101/62 44/84/46
f 53/95/61 44/84/46 42/82/45
f 54/98/63 53/95/61 42/82/45
f 54/98/63 42/82/45 41/81/51
f 56/104/64 54/98/63 41/81/51
f 56/104/64 41/81/51 43/83/52
f 57/107/65 56/104/64 43/83/52
f 57/107/65 43/83/52 45/85/55
f 55/101/62 58/109/66 46/86/49
f 55/101/62 46/86/49 44/84/46
f 58/109/66 59/111/67 48/88/50
f 58/109/66 48/88/50 46/86/49
f 60/113/68 57/107/65 45/85/55
f 60/113/68 45/85/55 47/87/56
f 61/115/69 60/113/68 47/87/56
f 61/115/69 47/87/56 39/79/54
f 59/111/67 62/118/70 40/80/48
f 59/111/67 40/80/48 48/88/50
f 64/125/71 63/122/72 37/77/53
f 64/125/71 37/77/53 38/78/47
f 62/118/70 64/125/71 38/78/47
f 62/118/70 38/78/47 40/80/48
f 63/122/72 61/115/69 39/79/54
f 63/122/72 39/79/54 37/77/53
f 65/128/23 67/130/29 55/102/62
f 65/128/23 55/102/62 53/96/61
f 66/129/24 65/128/23 53/97/61
f 66/129/24 53/97/61 54/99/63
f 68/132/30 66/129/24 54/100/63
f 68/132/30 54/100/63 56/105/64
f 69/134/57 68/133/30 56/106/64
f 69/134/57 56/106/64 57/108/65
f 67/131/29 70/136/58 58/110/66
f 67/131/29 58/110/66 55/103/62
f 73/142/32 72/141/60 60/114/68
f 73/142/32 60/114/68 61/116/69
f 71/138/59 74/144/31 62/119/70
f 71/139/59 62/120/70 59/112/67
f 76/147/22 75/146/21 63/123/72
f 76/147/22 63/123/72 64/126/71
f 74/145/31 76/147/22 64/127/71
f 74/145/31 64/127/71 62/121/70
f 75/146/21 73/143/32 61/117/69
f 75/146/21 61/117/69 63/124/72
o eye
v 1.000000 -0.625000 -0.187500
v 1.000000 1.375000 -0.187500
v -1.000000 -0.625000 -0.187500
v -1.000000 1.375000 -0.187500
vn -0.0000 -0.0000 -1.0000
vt 0.715517 0.019231
vt 0.715517 0.634615
vt 0.991379 0.019231
vt 0.991379 0.634615
s 1
usemtl Material.001
f 80/151/73 78/149/73 77/148/73
f 80/151/73 77/148/73 79/150/73
o wingL1
v 0.812500 0.500000 0.000000
v 0.812500 2.125000 0.000000
v 0.000000 0.500000 0.000000
v 0.000000 2.125000 0.000000
vn -0.0000 -0.0000 -1.0000
vt 0.008621 0.173077
vt 0.008621 0.673077
vt 0.120690 0.173077
vt 0.120690 0.673077
s 1
usemtl Material.001
f 84/155/74 82/153/74 81/152/74
f 84/155/74 81/152/74 83/154/74
o wingL2
v 1.687500 0.000000 -0.062500
v 1.687500 1.000000 -0.062500
v 0.187500 0.000000 -0.062500
v 0.187500 1.000000 -0.062500
vn -0.0000 -0.0000 -1.0000
vt 0.568965 0.442308
vt 0.568965 0.750000
vt 0.362069 0.442308
vt 0.362069 0.750000
s 1
usemtl Material.001
f 88/159/75 86/157/75 85/156/75
f 88/159/75 85/156/75 87/158/75
o wingL3
v 1.343750 -0.937500 -0.000000
v 1.343750 0.312500 0.000000
v 0.031250 -0.937500 -0.000000
v 0.031250 0.312500 0.000000
vn -0.0000 -0.0000 -1.0000
vt 0.568965 0.019231
vt 0.568965 0.403846
vt 0.387931 0.019231
vt 0.387931 0.403846
s 1
usemtl Material.001
f 92/163/76 90/161/76 89/160/76
f 92/163/76 89/160/76 91/162/76
o wingR1
v -0.062500 0.500000 0.000000
v -0.062500 2.125000 0.000000
v -0.875000 0.500000 0.000000
v -0.875000 2.125000 0.000000
vn -0.0000 -0.0000 -1.0000
vt 0.586207 0.173077
vt 0.586207 0.673077
vt 0.698276 0.173077
vt 0.698276 0.673077
s 1
usemtl Material.001
f 96/167/77 94/165/77 93/164/77
f 96/167/77 93/164/77 95/166/77
o wingR2
v -0.187500 0.000000 -0.062500
v -0.187500 1.000000 -0.062500
v -1.687500 0.000000 -0.062500
v -1.687500 1.000000 -0.062500
vn -0.0000 -0.0000 -1.0000
vt 0.344828 0.442308
vt 0.344828 0.750000
vt 0.137931 0.442308
vt 0.137931 0.750000
s 1
usemtl Material.002
f 100/171/78 98/169/78 97/168/78
f 100/171/78 97/168/78 99/170/78
o wingR3
v -0.031250 -0.937500 -0.000000
v -0.031250 0.312500 0.000000
v -1.343750 -0.937500 -0.000000
v -1.343750 0.312500 0.000000
vn -0.0000 -0.0000 -1.0000
vt 0.318966 0.019231
vt 0.318966 0.403846
vt 0.137931 0.019231
vt 0.137931 0.403846
s 1
usemtl Material.001
f 104/175/79 102/173/79 101/172/79
f 104/175/79 101/172/79 103/174/79
